<svg id="fist" xmlns="http://www.w3.org/2000/svg" width="48.738" height="48.737" viewBox="0 0 48.738 48.737">
  <g id="Grupo_14" data-name="Grupo 14" transform="translate(9.424 22.75)">
    <g id="Grupo_13" data-name="Grupo 13">
      <path id="Caminho_9" data-name="Caminho 9" d="M100.625,239.281a.951.951,0,1,0,.279.673A.957.957,0,0,0,100.625,239.281Z" transform="translate(-99 -239.002)" fill="#d4002c"/>
    </g>
  </g>
  <g id="Grupo_16" data-name="Grupo 16" transform="translate(9.424 13.023)">
    <g id="Grupo_15" data-name="Grupo 15">
      <path id="Caminho_10" data-name="Caminho 10" d="M128.29,149.942,126.1,144v-1.02a5.46,5.46,0,0,0-6.032-5.43l-.379.04a3.309,3.309,0,0,1-1.422-.164l-.931-.323a5.222,5.222,0,0,0-3.262-.047l-.713.225a3.3,3.3,0,0,1-2.171-.068,5.2,5.2,0,0,0-3.57-.061l-.694.241a3.3,3.3,0,0,1-1.57.145,5.22,5.22,0,0,0-4.968,2.033A7,7,0,0,0,99,143.742v.425a.952.952,0,0,0,1.9,0v-.425a5.086,5.086,0,0,1,1.011-3.032,3.32,3.32,0,0,1,3.159-1.293,5.206,5.206,0,0,0,2.48-.228l.694-.241a3.286,3.286,0,0,1,2.26.039,5.206,5.206,0,0,0,3.429.108l.713-.225a3.307,3.307,0,0,1,2.065.03l.931.323a5.221,5.221,0,0,0,2.246.258l.379-.04a3.556,3.556,0,0,1,3.929,3.536v8.837a2.5,2.5,0,0,1-2.493,2.493,1.9,1.9,0,0,1-1.9-1.9v-7.078a.952.952,0,0,0-1.9,0V152.4a1.9,1.9,0,0,1-1.9,1.9H115.4a1.9,1.9,0,0,1-1.9-1.9v-7.078a.952.952,0,0,0-1.9,0V152.4a1.9,1.9,0,0,1-1.9,1.9H109.1a1.9,1.9,0,0,1-1.9-1.9V145.09a.952.952,0,1,0-1.9,0v7.078a1.9,1.9,0,0,1-1.9,1.9h-.151a2.345,2.345,0,0,1-2.342-2.342v-.664a.952.952,0,0,0-1.9,0v.664a4.251,4.251,0,0,0,4.246,4.246h.151a3.8,3.8,0,0,0,2.75-1.179,3.8,3.8,0,0,0,2.959,1.416h.591a3.8,3.8,0,0,0,2.855-1.292,3.8,3.8,0,0,0,2.2,1.235v.59a2.768,2.768,0,0,0,2.765,2.765h6.206a5.017,5.017,0,0,0,4.845-3.729A9.655,9.655,0,0,0,128.29,149.942ZM117.513,157.6a.862.862,0,0,1-.861-.861v-.532h1.3a2.348,2.348,0,0,1,2.143,1.393Zm9.211-2.312a3.111,3.111,0,0,1-3,2.312h-1.631a4.229,4.229,0,0,0-.6-1.4c.073,0,.146.007.22.007a4.4,4.4,0,0,0,4.4-4.4v-2.306l.4,1.093A7.76,7.76,0,0,1,126.724,155.292Z" transform="translate(-98.998 -136.816)" fill="#d4002c"/>
    </g>
  </g>
  <g id="Grupo_18" data-name="Grupo 18">
    <g id="Grupo_17" data-name="Grupo 17">
      <path id="Caminho_11" data-name="Caminho 11" d="M48.016,20.511l-3.851-.959a20.173,20.173,0,0,0-2.391-5.768l2.045-3.4a.952.952,0,0,0-.143-1.164L39.522,5.064a.952.952,0,0,0-1.164-.143l-3.4,2.045a20.171,20.171,0,0,0-5.768-2.391L28.229.725A.952.952,0,0,0,27.306,0H21.432a.952.952,0,0,0-.924.722l-.959,3.851a20.171,20.171,0,0,0-5.768,2.391l-3.4-2.045a.952.952,0,0,0-1.164.143L5.062,9.219a.952.952,0,0,0-.143,1.164l2.045,3.4a20.173,20.173,0,0,0-2.391,5.768l-3.851.959A.952.952,0,0,0,0,21.435v5.874a.952.952,0,0,0,.722.924l3.851.959A20.173,20.173,0,0,0,6.964,34.96l-2.045,3.4a.952.952,0,0,0,.143,1.164l4.154,4.154a.952.952,0,0,0,1.164.143l3.4-2.045a20.171,20.171,0,0,0,5.768,2.391l.959,3.851a.952.952,0,0,0,.924.722h5.874a.952.952,0,0,0,.924-.722l.959-3.851a20.172,20.172,0,0,0,5.768-2.391l3.4,2.045a.952.952,0,0,0,1.164-.143l4.154-4.154a.952.952,0,0,0,.143-1.164l-2.045-3.4a20.173,20.173,0,0,0,2.391-5.768l3.851-.959a.952.952,0,0,0,.722-.924V21.435A.953.953,0,0,0,48.016,20.511Zm-1.182,6.054-3.7.921a.952.952,0,0,0-.7.727,18.3,18.3,0,0,1-2.576,6.216.952.952,0,0,0-.018,1.01L41.8,38.7l-3.1,3.1-3.266-1.963a.952.952,0,0,0-1.01.018,18.3,18.3,0,0,1-6.216,2.576.952.952,0,0,0-.727.7l-.921,3.7H22.176l-.921-3.7a.952.952,0,0,0-.727-.7,18.3,18.3,0,0,1-6.216-2.576.952.952,0,0,0-1.01-.018l-3.266,1.963-3.1-3.1L8.9,35.438a.952.952,0,0,0-.018-1.01A18.3,18.3,0,0,1,6.3,28.213a.952.952,0,0,0-.7-.727l-3.7-.921V22.179l3.7-.921a.952.952,0,0,0,.7-.727,18.3,18.3,0,0,1,2.576-6.216.952.952,0,0,0,.018-1.01L6.934,10.039l3.1-3.1L13.3,8.9a.952.952,0,0,0,1.01-.018,18.3,18.3,0,0,1,6.216-2.576.952.952,0,0,0,.727-.7l.921-3.7h4.386l.921,3.7a.952.952,0,0,0,.727.7,18.3,18.3,0,0,1,6.216,2.576.952.952,0,0,0,1.01.018L38.7,6.937l3.1,3.1L39.84,13.305a.952.952,0,0,0,.018,1.01,18.3,18.3,0,0,1,2.576,6.216.952.952,0,0,0,.7.727l3.7.921Z" transform="translate(0 -0.003)" fill="#d4002c"/>
    </g>
  </g>
</svg>
