<?xml version="1.0" encoding="iso-8859-1"?>
<!-- Generator: Adobe Illustrator 19.0.0, SVG Export Plug-In . SVG Version: 6.00 Build 0)  -->
<svg version="1.1" id="Layer_1" xmlns="http://www.w3.org/2000/svg" xmlns:xlink="http://www.w3.org/1999/xlink" x="0px" y="0px"
	 viewBox="0 0 512 512" style="enable-background:new 0 0 512 512;" xml:space="preserve">
<g>
	<g>
		<g>
			<path d="M437.838,468.735V106.168c9.739-2.227,17.034-10.944,17.034-21.349c0-12.084-9.83-21.916-21.914-21.916h-88.751v-0.112
				c0-11.59-9.429-21.019-21.019-21.019h-17.988C301.327,18.113,280.738,0,256,0s-45.326,18.113-49.201,41.774h-17.989
				c-11.59,0-21.019,9.429-21.019,21.019v0.112H79.044c-12.084-0.001-21.916,9.83-21.916,21.915
				c0,10.404,7.295,19.121,17.034,21.349v362.567c-9.739,2.228-17.034,10.945-17.034,21.349c0,12.084,9.831,21.916,21.916,21.916
				h353.914c12.083,0,21.914-9.831,21.914-21.916C454.872,479.679,447.576,470.962,437.838,468.735z M344.207,79.072h88.751
				c3.168,0,5.745,2.578,5.745,5.747c0,3.169-2.577,5.747-5.745,5.747h-3.205h-85.546V79.072z M183.96,98.652V70.988v-8.195
				c0-2.674,2.176-4.851,4.851-4.851h25.418c4.465,0,8.084-3.619,8.084-8.084c0.001-18.576,15.113-33.69,33.687-33.69
				s33.686,15.113,33.687,33.69c0,4.466,3.62,8.084,8.084,8.084h25.417c2.674,0,4.851,2.176,4.851,4.851v8.196v27.663v5.017
				c0,2.674-2.176,4.851-4.851,4.851H188.811c-2.674,0-4.851-2.176-4.851-4.851V98.652z M73.297,84.82
				c0-3.169,2.578-5.747,5.747-5.747h88.747v11.495H82.247h-3.202C75.875,90.567,73.297,87.989,73.297,84.82z M432.958,495.832
				H79.044c-3.169,0-5.747-2.578-5.747-5.747s2.578-5.747,5.747-5.747h279.028c4.466,0,8.084-3.618,8.084-8.084
				c0-4.466-3.618-8.084-8.084-8.084H90.331V106.735h77.684c0.032,0.221,0.087,0.433,0.126,0.652
				c0.051,0.281,0.101,0.562,0.163,0.839c0.085,0.383,0.186,0.759,0.292,1.134c0.074,0.263,0.144,0.528,0.229,0.787
				c0.125,0.385,0.269,0.759,0.416,1.134c0.093,0.236,0.177,0.476,0.277,0.709c0.177,0.409,0.377,0.805,0.579,1.201
				c0.094,0.184,0.177,0.374,0.276,0.555c0.312,0.568,0.647,1.122,1.008,1.657c0.041,0.06,0.088,0.115,0.129,0.176
				c0.326,0.472,0.666,0.932,1.028,1.374c0.142,0.175,0.299,0.336,0.446,0.505c0.276,0.317,0.553,0.632,0.846,0.931
				c0.181,0.184,0.374,0.357,0.563,0.535c0.28,0.265,0.562,0.529,0.856,0.778c0.209,0.177,0.425,0.343,0.64,0.511
				c0.294,0.23,0.59,0.456,0.896,0.67c0.229,0.161,0.464,0.313,0.698,0.464c0.312,0.2,0.626,0.393,0.949,0.577
				c0.245,0.14,0.492,0.275,0.743,0.404c0.33,0.171,0.666,0.332,1.006,0.485c0.257,0.116,0.513,0.231,0.775,0.337
				c0.352,0.143,0.711,0.269,1.074,0.393c0.262,0.089,0.522,0.182,0.788,0.262c0.384,0.114,0.775,0.208,1.167,0.301
				c0.255,0.06,0.508,0.128,0.767,0.18c0.44,0.086,0.887,0.146,1.336,0.205c0.222,0.029,0.441,0.07,0.665,0.093
				c0.677,0.066,1.361,0.105,2.056,0.105h134.378c0.694,0,1.379-0.038,2.057-0.105c0.223-0.022,0.441-0.064,0.662-0.092
				c0.449-0.058,0.898-0.119,1.339-0.205c0.259-0.051,0.51-0.119,0.764-0.179c0.393-0.093,0.787-0.188,1.172-0.302
				c0.265-0.079,0.523-0.171,0.784-0.26c0.363-0.124,0.724-0.252,1.079-0.396c0.26-0.106,0.515-0.219,0.77-0.334
				c0.343-0.155,0.68-0.316,1.013-0.488c0.249-0.129,0.494-0.262,0.736-0.401c0.324-0.185,0.642-0.379,0.956-0.581
				c0.233-0.15,0.465-0.301,0.691-0.459c0.309-0.217,0.608-0.445,0.904-0.677c0.212-0.167,0.427-0.33,0.633-0.504
				c0.299-0.252,0.582-0.518,0.867-0.787c0.185-0.175,0.374-0.344,0.553-0.526c0.297-0.303,0.578-0.623,0.858-0.943
				c0.144-0.166,0.297-0.323,0.437-0.494c0.366-0.448,0.713-0.915,1.042-1.393c0.037-0.054,0.08-0.103,0.116-0.157
				c0.361-0.536,0.696-1.09,1.008-1.658c0.099-0.18,0.181-0.369,0.275-0.552c0.203-0.397,0.403-0.793,0.581-1.203
				c0.1-0.232,0.184-0.472,0.277-0.708c0.147-0.375,0.291-0.749,0.416-1.134c0.084-0.26,0.154-0.524,0.229-0.788
				c0.106-0.375,0.207-0.75,0.292-1.133c0.061-0.277,0.112-0.557,0.163-0.839c0.039-0.219,0.094-0.431,0.126-0.652h77.685v361.432
				h-36.291c-4.466,0-8.084,3.618-8.084,8.084c0,4.466,3.618,8.084,8.084,8.084h47.579c3.168,0,5.745,2.578,5.745,5.747
				S436.126,495.832,432.958,495.832z"/>
			<path d="M256,71.505c12.036,0,21.827-9.792,21.827-21.827S268.036,27.851,256,27.851c-12.036,0-21.827,9.792-21.827,21.827
				S243.964,71.505,256,71.505z M256,44.019c3.119,0,5.659,2.538,5.659,5.659c0,3.12-2.539,5.659-5.659,5.659
				c-3.12,0-5.659-2.538-5.659-5.659C250.341,46.557,252.88,44.019,256,44.019z"/>
			<path d="M314.506,199.235c2.072-3.955,0.544-8.841-3.41-10.912l-30.236-15.834c-3.953-2.07-8.84-0.544-10.911,3.41
				l-15.834,30.236c-2.072,3.955-0.544,8.841,3.41,10.912c1.196,0.627,2.48,0.925,3.745,0.925c2.91,0,5.724-1.578,7.167-4.335
				l6.743-12.875c17.673,65.588-13.183,134.567-74.751,164.703c-5.225-5.683-12.335-9.021-20.051-9.401
				c-16.215-0.806-29.821,11.674-30.612,27.729c-0.386,7.792,2.286,15.267,7.525,21.049c5.237,5.781,12.413,9.178,20.205,9.563
				c0.489,0.024,0.974,0.036,1.458,0.036c15.579,0,28.383-12.195,29.151-27.764c0.113-2.288-0.044-4.548-0.446-6.747
				c34.057-16.725,60.931-45.079,75.878-80.166c14.056-32.994,16.468-69.504,7.054-103.926l13.005,6.81
				C307.545,204.717,312.434,203.19,314.506,199.235z M191.956,385.876c-0.355,7.168-6.429,12.732-13.663,12.376
				c-3.478-0.171-6.682-1.687-9.021-4.27c-2.338-2.582-3.531-5.917-3.359-9.396c0.343-6.949,6.055-12.394,13.003-12.394
				c0.22,0,0.44,0.005,0.665,0.017c3.477,0.17,6.68,1.686,9.018,4.267C190.936,379.058,192.128,382.396,191.956,385.876z"/>
			<path d="M183.986,263.371l-13.591,13.591c-3.157,3.158-3.157,8.276,0,11.433c1.578,1.578,3.648,2.367,5.716,2.367
				s4.138-0.789,5.716-2.367l13.592-13.592l13.592,13.592c1.578,1.578,3.648,2.367,5.716,2.367s4.138-0.789,5.716-2.367
				c3.157-3.158,3.157-8.276,0-11.433l-13.591-13.591l13.592-13.592c3.157-3.158,3.157-8.276,0-11.433
				c-3.157-3.156-8.276-3.156-11.433,0l-13.593,13.593l-13.593-13.593c-3.157-3.156-8.276-3.156-11.432,0
				c-3.157,3.158-3.157,8.276,0,11.433L183.986,263.371z"/>
			<path d="M346.315,347.632l13.592-13.592c3.154-3.157,3.154-8.275-0.002-11.433c-3.158-3.156-8.276-3.156-11.433,0l-13.592,13.592
				l-13.592-13.592c-3.158-3.156-8.276-3.156-11.433,0c-3.157,3.158-3.157,8.276,0,11.433l13.592,13.592l-13.591,13.591
				c-3.157,3.158-3.157,8.276,0,11.433c1.579,1.578,3.649,2.367,5.717,2.367s4.138-0.789,5.717-2.367l13.591-13.591l13.591,13.591
				c1.579,1.578,3.649,2.367,5.717,2.367c2.068,0,4.138-0.789,5.717-2.367c3.157-3.158,3.157-8.276,0-11.433L346.315,347.632z"/>
		</g>
	</g>
</g>
<g>
</g>
<g>
</g>
<g>
</g>
<g>
</g>
<g>
</g>
<g>
</g>
<g>
</g>
<g>
</g>
<g>
</g>
<g>
</g>
<g>
</g>
<g>
</g>
<g>
</g>
<g>
</g>
<g>
</g>
</svg>
